PathFileType	4	(X/Y/Z)	C:/Users/opensim2020/Desktop/walking_exp_matlab/subject01_walking14_straight_04.trc																																																																																																																												
DataRate	CameraRate	NumFrames	NumMarkers	Units	OrigDataRate	OrigDataStartFrame	OrigNumFrames																																																																																																																								
100	100	4	42	mm	100	2107	89																																																																																																																								
Frame#	Time	LFHD			RFHD			LBHD			RBHD			C7			T10			CLAV			STRN			RBAK			LSHO			LUPA			LELB			LFRM			LWRA			LWRB			LFIN			RSHO			RUPA			RELB			RFRM			RWRA			RWRB			RFIN			LASI			RASI			LPSI			RPSI			LTHI			LKNE			LTIB			LANK			LHEE			LTOE			RTHI			RKNE			RTIB			RANK			RHEE			RTOE			*39			*40			*41		
		X1	Y1	Z1	X2	Y2	Z2	X3	Y3	Z3	X4	Y4	Z4	X5	Y5	Z5	X6	Y6	Z6	X7	Y7	Z7	X8	Y8	Z8	X9	Y9	Z9	X10	Y10	Z10	X11	Y11	Z11	X12	Y12	Z12	X13	Y13	Z13	X14	Y14	Z14	X15	Y15	Z15	X16	Y16	Z16	X17	Y17	Z17	X18	Y18	Z18	X19	Y19	Z19	X20	Y20	Z20	X21	Y21	Z21	X22	Y22	Z22	X23	Y23	Z23	X24	Y24	Z24	X25	Y25	Z25	X26	Y26	Z26	X27	Y27	Z27	X28	Y28	Z28	X29	Y29	Z29	X30	Y30	Z30	X31	Y31	Z31	X32	Y32	Z32	X33	Y33	Z33	X34	Y34	Z34	X35	Y35	Z35	X36	Y36	Z36	X37	Y37	Z37	X38	Y38	Z38	X39	Y39	Z39	X40	Y40	Z40	X41	Y41	Z41	X42	Y42	Z42
																																																																																																																															
34	0.33	-216.06924	1670.29346	1075.29492	-165.0757	1670.93933	1177.76196	-326.90308	1639.11523	1124.61353	-275.76373	1638.97473	1232.24805	-371.24826	1442.4071	1142.06323	-420.63052	1149.40125	1137.0354	-228.35448	1370.26965	1144.2406	-192.58095	1214.23999	1137.55481	-437.3287	1250.48499	1209.6073	-284.99527	1413.60437	986.2951	-333.28259	1244.62244	886.21429	-365.26959	1094.36401	872.65717	-312.87122	987.3335	857.23651	-220.26062	887.33929	884.11823	-272.97314	871.39001	861.72839	-215.63358	812.6568	851.11035	-301.18448	1406.69116	1290.11865	-372.14221	1212.95178	1386.32581	-366.38031	1086.32214	1396.00122	-324.22427	972.11578	1428.1908	-226.92906	868.39246	1413.7168	-271.63174	862.29285	1448.95532	-220.91936	794.8327	1457.32495	-247.00282	942.18585	1032.89233	-247.41263	944.53241	1248.49622	-430.81143	951.59253	1079.28967	-431.2973	961.10425	1223.98962	-210.15294	613.45276	968.50232	-198.51668	481.01016	979.85742	-332.30859	355.06967	983.47534	-472.82211	189.80751	1041.41003	-519.18048	190.29362	1101.59363	-390.64377	71.9689	1032.04297	-309.30136	610.06409	1303.65942	-300.20465	450.84924	1278.68262	-360.69711	283.86682	1285.36328	-390.71545	79.10533	1235.19897	-439.22369	43.04228	1183.29077	-250.91693	36.86705	1239.33911	-179.64558	1705.94092	1159.81628	-1973.13391	1023.5351	3101.94238	-2012.52356	1022.09094	3140.58521
35	0.34	-203.21367	1670.09534	1075.34338	-151.8158	1670.91284	1177.6842	-313.90826	1638.89465	1125.18506	-262.27713	1638.96985	1232.61133	-358.19821	1442.44897	1143.49646	-408.06335	1149.5658	1138.5918	-215.37277	1370.19226	1144.60962	-179.82085	1214.16675	1137.96423	-424.0224	1250.85962	1212.04724	-272.9248	1413.63635	987.1236	-323.09116	1245.01062	887.30554	-357.03259	1095.38525	874.38385	-308.7092	986.84766	857.76178	-219.98813	882.73102	883.44385	-273.41681	869.19269	861.02606	-218.5815	807.83911	850.29968	-286.87665	1406.78064	1290.59656	-356.22363	1213.39087	1388.41333	-349.82455	1086.31299	1397.89172	-303.13037	973.12231	1429.05554	-201.96704	873.64307	1412.71973	-245.80795	865.44415	1448.22644	-192.26212	800.46149	1456	-234.0556	942.73114	1034.32556	-235.72256	944.04559	1250.01807	-418.33804	952.06232	1079.73291	-419.48483	961.41229	1224.26453	-192.63583	615.92932	969.39417	-178.30035	483.96884	981.55615	-307.0802	352.22467	985.62494	-440.96527	181.51413	1044.23926	-486.77258	178.7726	1104.98193	-352.00061	69.10813	1032.02576	-302.73962	610.02454	1304.21021	-296.81879	450.5578	1279.35535	-359.0386	284.29877	1285.64954	-390.60712	79.66302	1235.30151	-438.91681	43.99354	1183.09521	-250.81117	36.77906	1239.46082	-166.54955	1705.89917	1159.63074	-1973.08862	1023.66187	3101.95288	-2012.48376	1022.05585	3140.72339
36	0.35	-190.4823	1669.81787	1075.22131	-138.53526	1670.67419	1177.33704	-300.78668	1638.53491	1125.59949	-248.7735	1638.8186	1232.854	-345.12726	1442.33484	1144.70166	-395.53314	1149.52844	1140.12573	-202.30215	1369.90601	1144.91919	-166.95901	1213.91699	1138.38281	-410.79971	1251.06494	1214.36707	-260.71313	1413.39038	987.80884	-312.85281	1245.15979	888.39459	-348.66672	1096.08325	876.1521	-304.43805	986.17279	858.3465	-219.74754	878.33453	882.76593	-273.6524	867.23212	860.35156	-221.19655	803.51367	849.32001	-272.72589	1406.92725	1291.51794	-340.32468	1213.75159	1390.44043	-333.29556	1086.12378	1399.76135	-282.17316	974.22998	1429.80432	-177.36998	879.21423	1411.46826	-220.14241	868.9762	1447.69568	-163.93816	806.19629	1454.26831	-221.80255	942.80646	1035.66272	-224.22668	943.18701	1251.39111	-405.99872	952.29834	1080.26624	-407.52905	961.39587	1224.6394	-175.61043	618.30072	970.32336	-158.52118	486.65604	983.32013	-281.75867	348.74478	987.48743	-408.40701	172.60992	1046.85498	-453.75995	166.40193	1107.79541	-313.86737	66.46281	1030.76563	-295.72696	609.83484	1304.67627	-293.15796	450.55228	1280.1073	-357.30099	284.97104	1285.93579	-390.18869	80.29056	1235.19055	-438.39737	45.01865	1182.87537	-250.56834	36.79155	1239.56067	-153.40407	1705.6781	1159.41589	-1973.22888	1023.51575	3101.95679	-2012.547	1022.146	3140.71191
37	0.36	-177.52499	1669.17175	1075.1189	-125.26031	1670.32532	1176.99805	-287.84055	1637.91809	1125.88928	-235.2343	1638.50806	1232.94543	-332.00204	1442.07373	1145.80957	-382.85068	1149.30505	1141.49487	-189.17511	1369.53638	1145.1554	-154.04927	1213.48535	1138.6748	-397.52707	1251.13831	1216.5249	-248.48544	1412.93542	988.36359	-302.56848	1244.88647	889.50977	-340.05563	1096.58569	878.05151	-300.13062	985.48822	858.92383	-219.35291	874.16785	882.24847	-273.70389	865.47211	859.63245	-223.74847	799.71454	848.2196	-258.49109	1406.7417	1291.85999	-324.47986	1214.05225	1392.36365	-316.55276	1085.89832	1401.5863	-261.32236	975.41327	1430.50037	-152.79807	885.19537	1409.80286	-195.07352	872.6192	1446.81482	-136.03506	812.56262	1452.52649	-208.98445	942.6944	1036.51428	-212.39308	942.41986	1252.67566	-393.6694	952.28455	1080.88489	-395.80084	961.01819	1225.13196	-158.92506	620.47241	971.1947	-139.49411	488.9444	985.04895	-256.71896	344.82364	989.24646	-374.90906	163.08311	1049.14917	-418.52045	153.22467	1111.08228	-273.72043	63.74494	1029.94836	-288.54431	609.41205	1305.17065	-289.06073	450.17267	1280.54858	-355.04959	285.42969	1286.12048	-389.93188	81.18974	1235.17041	-438.00516	46.04214	1182.46838	-250.42177	36.74476	1239.66931	-140.2099	1705.25073	1158.83325	-1973.19031	1023.57092	3101.96558	-2012.46326	1022.06512	3140.77612
